<svg width="24" height="24" viewBox="0 0 24 24" fill="none" xmlns="http://www.w3.org/2000/svg">
<path d="M15.1158 19H8.88421C8.39587 19 8 19.2686 8 19.6V22.4C8 22.7314 8.39587 23 8.88421 23H15.1158C15.6041 23 16 22.7314 16 22.4V19.6C16 19.2686 15.6041 19 15.1158 19Z" fill="white"/>
<path d="M15.328 1H8.672C8.30086 1 8 1.30086 8 1.672V8.328C8 8.69914 8.30086 9 8.672 9H15.328C15.6991 9 16 8.69914 16 8.328V1.672C16 1.30086 15.6991 1 15.328 1Z" fill="white"/>
<path d="M15.328 10H8.672C8.30086 10 8 10.3009 8 10.672V17.328C8 17.6991 8.30086 18 8.672 18H15.328C15.6991 18 16 17.6991 16 17.328V10.672C16 10.3009 15.6991 10 15.328 10Z" fill="white"/>
<path d="M6.4 6H3.6C3.26863 6 3 6.30086 3 6.672V13.328C3 13.6991 3.26863 14 3.6 14H6.4C6.73137 14 7 13.6991 7 13.328V6.672C7 6.30086 6.73137 6 6.4 6Z" fill="white"/>
<path d="M20.4 10H17.6C17.2686 10 17 10.3009 17 10.672V17.328C17 17.6991 17.2686 18 17.6 18H20.4C20.7314 18 21 17.6991 21 17.328V10.672C21 10.3009 20.7314 10 20.4 10Z" fill="white"/>
<path d="M6.4 1H3.6C3.26863 1 3 1.26863 3 1.6V4.4C3 4.73137 3.26863 5 3.6 5H6.4C6.73137 5 7 4.73137 7 4.4V1.6C7 1.26863 6.73137 1 6.4 1Z" fill="white"/>
<path d="M20.4 19H17.6C17.2686 19 17 19.2686 17 19.6V22.4C17 22.7314 17.2686 23 17.6 23H20.4C20.7314 23 21 22.7314 21 22.4V19.6C21 19.2686 20.7314 19 20.4 19Z" fill="white"/>
</svg>
