<svg width="140" height="24" viewBox="0 0 140 24" fill="none" xmlns="http://www.w3.org/2000/svg">
<path d="M31.2611 14.94V19H29.5611V6.46H33.8211C35.5944 6.46 36.8611 6.78 37.6211 7.42C38.3944 8.06 38.7811 9.10667 38.7811 10.56C38.7811 12.04 38.3811 13.14 37.5811 13.86C36.7811 14.58 35.5478 14.94 33.8811 14.94H31.2611ZM37.0611 10.56C37.0611 9.64 36.8078 8.98667 36.3011 8.6C35.8078 8.2 34.9811 8 33.8211 8H31.2611V13.44H33.8211C34.9811 13.44 35.8078 13.2133 36.3011 12.76C36.8078 12.3067 37.0611 11.5733 37.0611 10.56ZM49.3906 14.04C49.3906 15.9067 49.044 17.2267 48.3506 18C47.6706 18.7733 46.4973 19.16 44.8306 19.16C43.1106 19.16 41.9173 18.7867 41.2506 18.04C40.584 17.2933 40.2506 15.96 40.2506 14.04C40.2506 12.16 40.5906 10.84 41.2706 10.08C41.964 9.30667 43.1506 8.92 44.8306 8.92C46.5506 8.92 47.7373 9.29333 48.3906 10.04C49.0573 10.7867 49.3906 12.12 49.3906 14.04ZM41.8906 14.02C41.8906 15.4867 42.084 16.46 42.4706 16.94C42.8573 17.4067 43.644 17.64 44.8306 17.64C45.9773 17.64 46.7506 17.3933 47.1506 16.9C47.5506 16.3933 47.7506 15.4333 47.7506 14.02C47.7506 12.5533 47.5573 11.5867 47.1706 11.12C46.7973 10.64 46.0173 10.4 44.8306 10.4C43.6706 10.4 42.8906 10.6467 42.4906 11.14C42.0906 11.6333 41.8906 12.5933 41.8906 14.02ZM58.47 17.04V18.42C58.1367 18.6333 57.6367 18.8133 56.97 18.96C56.3167 19.0933 55.63 19.16 54.91 19.16C53.51 19.16 52.5233 18.78 51.95 18.02C51.39 17.26 51.11 15.9333 51.11 14.04C51.11 12.1867 51.4767 10.8733 52.21 10.1C52.9433 9.31333 54.19 8.92 55.95 8.92C56.3367 8.92 56.6833 8.93333 56.99 8.96C57.31 8.97333 57.7167 9.01333 58.21 9.08V10.54C57.7167 10.4733 57.31 10.4333 56.99 10.42C56.6833 10.4067 56.3367 10.4 55.95 10.4C54.6967 10.4 53.85 10.66 53.41 11.18C52.97 11.6867 52.75 12.64 52.75 14.04C52.75 15.44 52.9233 16.3933 53.27 16.9C53.6167 17.3933 54.2833 17.64 55.27 17.64C55.8167 17.64 56.3833 17.5867 56.97 17.48C57.5567 17.36 58.0567 17.2133 58.47 17.04ZM61.9991 14.72V19H60.3591V5.7H61.9991V13.3H63.1791L66.6391 9.12H68.6191L64.5191 13.92L68.8191 19H66.7591L63.2391 14.72H61.9991ZM77.0759 17.08V18.46C76.7293 18.6467 76.2159 18.8133 75.5359 18.96C74.8693 19.0933 74.1893 19.16 73.4959 19.16C71.9493 19.16 70.8426 18.76 70.1759 17.96C69.5093 17.16 69.1759 15.84 69.1759 14C69.1759 12.2267 69.5226 10.94 70.2159 10.14C70.9093 9.32667 72.0159 8.92 73.5359 8.92C74.9493 8.92 75.9626 9.24 76.5759 9.88C77.1893 10.5067 77.4959 11.56 77.4959 13.04C77.4959 13.3067 77.4893 13.5533 77.4759 13.78C77.4626 14.0067 77.4359 14.28 77.3959 14.6H70.8359C70.8493 15.6933 71.0693 16.4733 71.4959 16.94C71.9359 17.4067 72.6893 17.64 73.7559 17.64C74.3293 17.64 74.9293 17.5867 75.5559 17.48C76.1826 17.3733 76.6893 17.24 77.0759 17.08ZM75.9959 12.82C75.9826 11.94 75.7893 11.32 75.4159 10.96C75.0426 10.5867 74.4159 10.4 73.5359 10.4C72.5493 10.4 71.8493 10.6133 71.4359 11.04C71.0359 11.4533 70.8359 12.1867 70.8359 13.24H75.9759C75.9759 13.2133 75.9759 13.1533 75.9759 13.06C75.9893 12.9533 75.9959 12.8733 75.9959 12.82ZM85.3192 17.46V18.84C85.1059 18.9333 84.8126 19.0067 84.4392 19.06C84.0792 19.1267 83.7326 19.16 83.3992 19.16C82.1992 19.16 81.3392 18.8933 80.8192 18.36C80.3126 17.8267 80.0592 16.9067 80.0592 15.6V10.52H78.5792V9.12H80.0792L80.3392 6.72H81.6992V9.12H85.2192V10.52H81.6992V15.54C81.6992 16.3533 81.8459 16.9067 82.1392 17.2C82.4459 17.4933 82.9792 17.64 83.7392 17.64C83.9792 17.64 84.2526 17.62 84.5592 17.58C84.8792 17.54 85.1326 17.5 85.3192 17.46ZM96.3611 15.32C96.3611 16.5867 95.9878 17.52 95.2411 18.12C94.5078 18.7067 93.3478 19 91.7611 19H86.5811V6.46H91.7611C93.2011 6.46 94.2211 6.71333 94.8211 7.22C95.4344 7.71333 95.7411 8.54667 95.7411 9.72C95.7411 10.4667 95.6411 11.04 95.4411 11.44C95.2411 11.8267 94.8411 12.1267 94.2411 12.34C94.9611 12.4867 95.4944 12.8067 95.8411 13.3C96.1878 13.7933 96.3611 14.4667 96.3611 15.32ZM92.8811 10.18C92.8811 9.74 92.7944 9.43333 92.6211 9.26C92.4611 9.08667 92.1744 9 91.7611 9H89.6811V11.54H91.7611C92.1744 11.54 92.4611 11.44 92.6211 11.24C92.7944 11.0267 92.8811 10.6733 92.8811 10.18ZM93.3611 15.12C93.3611 14.64 93.2411 14.3067 93.0011 14.12C92.7611 13.92 92.3478 13.82 91.7611 13.82H89.6811V16.36H91.7611C92.3478 16.36 92.7611 16.2667 93.0011 16.08C93.2411 15.8933 93.3611 15.5733 93.3611 15.12ZM100.614 5.7V19H97.6139V5.7H100.614ZM111.74 14.06C111.74 15.9133 111.367 17.2333 110.62 18.02C109.874 18.8067 108.62 19.2 106.86 19.2C105.1 19.2 103.847 18.8067 103.1 18.02C102.354 17.2333 101.98 15.9133 101.98 14.06C101.98 12.2067 102.354 10.8867 103.1 10.1C103.847 9.31333 105.1 8.92 106.86 8.92C108.62 8.92 109.874 9.31333 110.62 10.1C111.367 10.8867 111.74 12.2067 111.74 14.06ZM104.98 14.02C104.98 15.0333 105.087 15.6867 105.3 15.98C105.527 16.2733 106.047 16.42 106.86 16.42C107.674 16.42 108.187 16.2733 108.4 15.98C108.627 15.6867 108.74 15.0333 108.74 14.02C108.74 13.0067 108.627 12.3533 108.4 12.06C108.187 11.7667 107.674 11.62 106.86 11.62C106.047 11.62 105.527 11.7667 105.3 12.06C105.087 12.3533 104.98 13.0067 104.98 14.02ZM120.442 15.98V18.46C120.122 18.66 119.602 18.8333 118.882 18.98C118.162 19.1267 117.422 19.2 116.662 19.2C115.222 19.2 114.209 18.82 113.622 18.06C113.049 17.2867 112.762 15.9533 112.762 14.06C112.762 12.1667 113.136 10.84 113.882 10.08C114.629 9.30667 115.936 8.92 117.802 8.92C118.256 8.92 118.662 8.93333 119.022 8.96C119.382 8.97333 119.769 9.00667 120.182 9.06V11.72C119.529 11.6667 119.056 11.64 118.762 11.64C118.469 11.6267 118.149 11.62 117.802 11.62C116.882 11.62 116.309 11.7533 116.082 12.02C115.869 12.2733 115.762 12.9533 115.762 14.06C115.762 15.06 115.849 15.7 116.022 15.98C116.209 16.26 116.629 16.4 117.282 16.4C117.816 16.4 118.369 16.36 118.942 16.28C119.529 16.2 120.029 16.1 120.442 15.98ZM124.676 15.16V19H121.676V5.7H124.676V12.84H125.136L127.636 9.12H131.196L127.716 13.88L131.396 19H127.736L125.136 15.16H124.676ZM135.95 11.46C135.39 11.46 135.01 11.5067 134.81 11.6C134.624 11.68 134.53 11.8733 134.53 12.18C134.53 12.3 134.564 12.4 134.63 12.48C134.71 12.5467 134.817 12.5867 134.95 12.6L137.33 12.92C138.104 13.0267 138.644 13.28 138.95 13.68C139.27 14.0667 139.43 14.6867 139.43 15.54C139.43 16.82 139.144 17.7533 138.57 18.34C137.997 18.9133 136.997 19.2 135.57 19.2C134.784 19.2 134.07 19.1667 133.43 19.1C132.804 19.0467 132.27 18.9667 131.83 18.86V16.26C132.164 16.34 132.624 16.4133 133.21 16.48C133.81 16.5333 134.417 16.56 135.03 16.56C135.577 16.56 135.944 16.5067 136.13 16.4C136.33 16.28 136.43 16.06 136.43 15.74C136.43 15.6333 136.397 15.5467 136.33 15.48C136.264 15.4 136.177 15.3533 136.07 15.34L133.61 15.02C132.89 14.9267 132.364 14.6667 132.03 14.24C131.71 13.8 131.55 13.1533 131.55 12.3C131.55 11.18 131.904 10.34 132.61 9.78C133.317 9.20667 134.364 8.92 135.75 8.92C136.297 8.92 136.804 8.93333 137.27 8.96C137.737 8.98667 138.23 9.04 138.75 9.12V11.62C138.417 11.5667 138.004 11.5267 137.51 11.5C137.017 11.4733 136.497 11.46 135.95 11.46Z" fill="white"/>
<path d="M15.1158 19H8.88421C8.39587 19 8 19.2686 8 19.6V22.4C8 22.7314 8.39587 23 8.88421 23H15.1158C15.6041 23 16 22.7314 16 22.4V19.6C16 19.2686 15.6041 19 15.1158 19Z" fill="white"/>
<path d="M15.328 1H8.672C8.30086 1 8 1.30086 8 1.672V8.328C8 8.69914 8.30086 9 8.672 9H15.328C15.6991 9 16 8.69914 16 8.328V1.672C16 1.30086 15.6991 1 15.328 1Z" fill="white"/>
<path d="M15.328 10H8.672C8.30086 10 8 10.3009 8 10.672V17.328C8 17.6991 8.30086 18 8.672 18H15.328C15.6991 18 16 17.6991 16 17.328V10.672C16 10.3009 15.6991 10 15.328 10Z" fill="white"/>
<path d="M6.4 6H3.6C3.26863 6 3 6.30086 3 6.672V13.328C3 13.6991 3.26863 14 3.6 14H6.4C6.73137 14 7 13.6991 7 13.328V6.672C7 6.30086 6.73137 6 6.4 6Z" fill="white"/>
<path d="M20.4 10H17.6C17.2686 10 17 10.3009 17 10.672V17.328C17 17.6991 17.2686 18 17.6 18H20.4C20.7314 18 21 17.6991 21 17.328V10.672C21 10.3009 20.7314 10 20.4 10Z" fill="white"/>
<path d="M6.4 1H3.6C3.26863 1 3 1.26863 3 1.6V4.4C3 4.73137 3.26863 5 3.6 5H6.4C6.73137 5 7 4.73137 7 4.4V1.6C7 1.26863 6.73137 1 6.4 1Z" fill="white"/>
<path d="M20.4 19H17.6C17.2686 19 17 19.2686 17 19.6V22.4C17 22.7314 17.2686 23 17.6 23H20.4C20.7314 23 21 22.7314 21 22.4V19.6C21 19.2686 20.7314 19 20.4 19Z" fill="white"/>
</svg>
